<?xml version="1.0" encoding="utf-8" ?><svg xmlns="http://www.w3.org/2000/svg" xmlns:xlink="http://www.w3.org/1999/xlink" width="1024" height="1024" viewBox="0 0 1024 1024"><path fill="white" d="M0 0L1024 0L1024 1024L0 1024L0 0Z"/><path fill="#111010" d="M536.198 329.857C536.998 329.465 537.791 329.062 538.579 328.648C539.692 331.529 541.004 335.025 541.598 338.016C542.033 340.207 542.042 340.266 544.123 340.755C544.68 343.269 547.708 349.604 549.083 351.809C554.646 350.473 560.711 350.64 565.75 353.632C570.732 356.59 574.769 362.354 576.165 367.936C577.447 373.064 576.811 378.863 574.002 383.393C569.121 391.265 531.146 415.539 521.364 422.526C533.898 422.777 539.747 427.908 550.103 428.615C565.414 429.661 581.659 431.06 596.972 431.874C617.899 432.986 642.093 435.736 662.784 435.956C661.961 440.823 661.111 445.686 660.233 450.544C658.079 450.112 655.226 449.401 653.339 450.575C656.121 463.276 660.114 480.326 663.39 492.844L668.063 494.081C675.784 498.076 677.688 503.076 676.599 511.592C675.409 520.887 673.126 530.064 671.534 539.298C668.947 552.015 666.996 565.447 664.283 578.04C667.278 581.731 670.479 585.342 673.311 589.153C675.225 591.726 675.254 592.426 674.7 595.56C675.584 596.27 677.384 596.102 679.027 596.423C682.88 597.337 695.018 611.943 695.281 616.814C695.316 617.461 694.459 617.825 693.839 618.278L692.928 619.037C696.724 618.954 697.697 619.019 701.427 619.706C704.843 622.435 714.592 633.263 715.989 637.819C716.199 638.502 715.827 640.447 715.574 641.251C716.639 641.481 717.705 641.704 718.773 641.92C723.85 644.154 729.6 650.856 731.627 655.911C732.507 658.132 732.726 660.56 732.256 662.903L733.316 664.097C740.043 670.062 746.24 678.914 741.661 688.039L741.605 688.929C745.794 699.251 743.99 711.262 734.523 718.022L734.441 718.946C735.158 730.641 726.526 738.831 714.978 737.253L713.829 738.577L711.216 741.502L711.677 742.025C716.415 741.295 735.767 741.589 741.302 741.591L802.907 741.637L802.943 751.301L71.5851 751.477L71.6214 741.533L299.48 741.586L299.862 740.883C294.513 738.228 293.074 736.839 288.687 732.786C286.615 735.02 285.657 735.831 283.337 737.704C280.813 734.886 275.965 728.227 274.151 725.016C275.756 724.069 277.599 723.264 279.297 722.469C277.499 718.61 275.791 715.744 273.498 712.187C271.119 712.968 268.528 713.662 266.109 714.358C264.373 709.274 263.121 703.953 261.207 698.432L270.184 695.559C270.078 690.508 270.158 687.359 270.626 682.337L263.208 680.147C263.882 675.231 264.936 669.583 266.872 665.018C269.399 665.411 272.035 665.939 274.561 666.403C276.421 661.671 278.384 658.068 281.055 653.787C279.212 652.007 277.375 650.816 275.289 649.346C278.81 643.407 281.169 640.339 285.792 635.188L290.411 638.324C292.728 635.304 298.104 630.52 297.54 626.994C296.536 625.57 294.798 625.257 293.073 624.675C296.113 619.75 298.638 616.443 302.141 611.882C303.538 613.303 304.979 614.349 306.544 615.564C309.234 611.596 311.965 607.656 314.738 603.745C313.57 602.362 311.881 602.049 310.112 601.466C312.28 598.765 317.104 592.539 318.066 589.409C321.384 578.603 323.466 563.912 325.484 552.648L318.276 552.368C319.925 546.069 321.476 536.618 322.769 530.015L329.712 530.092C331.817 516.569 334.873 503.327 337.276 489.916C335.157 489.553 332.516 489.367 330.336 489.15C331.878 483.468 332.977 477 334.101 471.171C335.956 471.195 338.165 471.534 340.034 471.763C341.715 468.935 344.929 451.001 345.788 446.524C343.526 446.352 341.142 446.681 339.797 444.833L340.258 443.042C340.509 441.298 341.358 436.686 341.879 435.035C342.693 433.559 342.634 433.608 342.657 431.931C342.594 428.084 344.016 422.071 344.792 418.125C388.147 419.826 431.644 420.152 474.914 421.808C475.807 419.171 473.078 409.428 475.912 405.583C477.161 403.889 478.245 400.618 480.232 399.083C492.163 389.862 504.915 381.669 517.194 372.914C517.28 372.556 517.365 372.198 517.451 371.84C513.182 367.847 507.702 354.167 504.86 348.509C503.407 345.089 502.295 342.231 501.095 338.728C501.725 338.663 502.355 338.591 502.984 338.512C510.281 335.773 523.226 332.916 531.008 331.108L533.258 330.582C534.325 330.343 535.134 330.146 536.198 329.857Z"/><path fill="#111010" d="M536.198 329.857C536.998 329.465 537.791 329.062 538.579 328.648C539.692 331.529 541.004 335.025 541.598 338.016C542.033 340.207 542.042 340.266 544.123 340.755C544.68 343.269 547.708 349.604 549.083 351.809C554.646 350.473 560.711 350.64 565.75 353.632C570.732 356.59 574.769 362.354 576.165 367.936C577.447 373.064 576.811 378.863 574.002 383.393C569.121 391.265 531.146 415.539 521.364 422.526C533.898 422.777 539.747 427.908 550.103 428.615C565.414 429.661 581.659 431.06 596.972 431.874C617.899 432.986 642.093 435.736 662.784 435.956C661.961 440.823 661.111 445.686 660.233 450.544C658.079 450.112 655.226 449.401 653.339 450.575C656.121 463.276 660.114 480.326 663.39 492.844L668.063 494.081C666.902 494.43 665.895 494.665 664.806 495.19C671.569 496.325 676.589 503.084 674.222 509.515C671.913 510.499 610.881 506.076 603.524 505.93C602.56 504.146 601.196 501.258 599.654 500.045L596.938 499.499C595.044 500.711 592.133 501.782 589.976 502.478C576.718 506.516 569.189 509.592 556.955 514.974L557.634 516.34C558.598 520.281 563.522 528.924 565.465 533.339L564.398 534.024C557.137 533.204 527.85 533.557 523.25 532.098L521.374 531.935C517.523 532.151 493.432 528.295 488.444 527.564L451.302 522.074C443.956 520.973 435.446 519.897 428.262 518.268C430.318 502.653 434.315 483.053 437.122 467.162L436.155 465.6C427.42 463.153 396.75 457.517 388.463 457.33C387.738 457.134 386.615 456.592 385.886 456.274C381.576 458.785 379.318 460.696 378.184 465.918C376.381 474.214 375.432 483.201 373.969 491.569C366.498 491.389 343.406 491.537 337.853 488.346C336.237 487.417 334.623 487.394 332.799 487.274C333.611 483.093 334.617 476.958 335.802 473.014L342.111 472.971C341.406 472.47 340.794 472.178 340.034 471.763C341.715 468.935 344.929 451.001 345.788 446.524C343.526 446.352 341.142 446.681 339.797 444.833L340.258 443.042C340.509 441.298 341.358 436.686 341.879 435.035C342.693 433.559 342.634 433.608 342.657 431.931C342.594 428.084 344.016 422.071 344.792 418.125C388.147 419.826 431.644 420.152 474.914 421.808C475.807 419.171 473.078 409.428 475.912 405.583C477.161 403.889 478.245 400.618 480.232 399.083C492.163 389.862 504.915 381.669 517.194 372.914C517.28 372.556 517.365 372.198 517.451 371.84C513.182 367.847 507.702 354.167 504.86 348.509C503.407 345.089 502.295 342.231 501.095 338.728C501.725 338.663 502.355 338.591 502.984 338.512C510.281 335.773 523.226 332.916 531.008 331.108L533.258 330.582C534.325 330.343 535.134 330.146 536.198 329.857Z"/><path fill="#F4642C" d="M536.198 329.857C536.998 329.465 537.791 329.062 538.579 328.648C539.692 331.529 541.004 335.025 541.598 338.016C542.033 340.207 542.042 340.266 544.123 340.755C544.68 343.269 547.708 349.604 549.083 351.809C554.646 350.473 560.711 350.64 565.75 353.632C570.732 356.59 574.769 362.354 576.165 367.936C577.447 373.064 576.811 378.863 574.002 383.393C569.121 391.265 531.146 415.539 521.364 422.526C533.898 422.777 539.747 427.908 550.103 428.615C565.414 429.661 581.659 431.06 596.972 431.874C617.899 432.986 642.093 435.736 662.784 435.956C661.961 440.823 661.111 445.686 660.233 450.544C658.079 450.112 655.226 449.401 653.339 450.575C656.121 463.276 660.114 480.326 663.39 492.844L668.063 494.081C666.902 494.43 665.895 494.665 664.806 495.19C652.767 494.758 640.721 494.517 628.673 494.465C611.971 494.758 607.783 493.747 591.974 490.704L589.31 490.258L589.473 489.139C589.464 489.135 588.503 488.718 588.492 488.716C588.239 488.672 586.747 488.04 586.736 487.673C586.539 480.941 587.139 449.84 588.238 445.405L588.644 444.272C577.261 442.791 560.856 443.784 548.838 441.867C541.68 440.726 532.539 435.108 526.849 434.77C518.034 434.247 507.717 434.143 498.78 433.927L446.929 432.489C421.805 431.673 396.695 431.075 371.576 429.993C364.46 429.687 356.737 429.327 349.65 429.591L349.478 430.689C348.418 430.928 348.278 430.954 347.195 430.982C345.201 431.15 345.119 431.185 343.113 431.796L342.657 431.931C342.594 428.084 344.016 422.071 344.792 418.125C388.147 419.826 431.644 420.152 474.914 421.808C475.807 419.171 473.078 409.428 475.912 405.583C477.161 403.889 478.245 400.618 480.232 399.083C492.163 389.862 504.915 381.669 517.194 372.914C517.28 372.556 517.365 372.198 517.451 371.84C513.182 367.847 507.702 354.167 504.86 348.509C503.407 345.089 502.295 342.231 501.095 338.728C501.725 338.663 502.355 338.591 502.984 338.512C510.281 335.773 523.226 332.916 531.008 331.108L533.258 330.582C534.325 330.343 535.134 330.146 536.198 329.857Z"/><path fill="#F4642C" d="M536.198 329.857C536.998 329.465 537.791 329.062 538.579 328.648C539.692 331.529 541.004 335.025 541.598 338.016C542.033 340.207 542.042 340.266 544.123 340.755C544.68 343.269 547.708 349.604 549.083 351.809C548.685 352.35 548.29 352.893 547.898 353.44L549.627 354.106C555.156 352.955 560.906 352.646 565.82 355.92C570.417 358.982 573.849 364.269 574.698 369.725C575.426 374.407 574.437 379.572 571.57 383.41C565.666 391.31 528.697 414.79 517.852 422.572C513.057 422.517 508.145 422.393 503.363 422.566L503.964 424.058C487.111 423.983 463.36 423.974 446.77 422.592C456.038 420.871 467.612 423.224 474.955 422.411L474.914 421.808C475.807 419.171 473.078 409.428 475.912 405.583C477.161 403.889 478.245 400.618 480.232 399.083C492.163 389.862 504.915 381.669 517.194 372.914C517.28 372.556 517.365 372.198 517.451 371.84C513.182 367.847 507.702 354.167 504.86 348.509C503.407 345.089 502.295 342.231 501.095 338.728C501.725 338.663 502.355 338.591 502.984 338.512C510.281 335.773 523.226 332.916 531.008 331.108L533.258 330.582C534.325 330.343 535.134 330.146 536.198 329.857Z"/><path fill="#111010" d="M536.198 329.857C536.998 329.465 537.791 329.062 538.579 328.648C539.692 331.529 541.004 335.025 541.598 338.016C542.033 340.207 542.042 340.266 544.123 340.755C544.68 343.269 547.708 349.604 549.083 351.809C548.685 352.35 548.29 352.893 547.898 353.44L549.627 354.106C529.112 364.361 509.773 382.017 490.074 394.066C478.943 400.875 473.081 408.206 477.382 421.938L486.652 422.007C484.142 418.699 482.694 415.754 483.296 411.4C483.758 408.06 485.609 405.07 488.392 403.166C491.192 401.237 494.81 400.432 498.147 401.143C501.118 401.798 503.692 403.639 505.273 406.238C506.463 408.226 507.138 410.476 507.774 412.686C506.691 417.274 506.557 418.994 503.363 422.566L503.964 424.058C487.111 423.983 463.36 423.974 446.77 422.592C456.038 420.871 467.612 423.224 474.955 422.411L474.914 421.808C475.807 419.171 473.078 409.428 475.912 405.583C477.161 403.889 478.245 400.618 480.232 399.083C492.163 389.862 504.915 381.669 517.194 372.914C517.28 372.556 517.365 372.198 517.451 371.84C513.182 367.847 507.702 354.167 504.86 348.509C503.407 345.089 502.295 342.231 501.095 338.728C501.725 338.663 502.355 338.591 502.984 338.512C510.281 335.773 523.226 332.916 531.008 331.108L533.258 330.582C534.325 330.343 535.134 330.146 536.198 329.857Z"/><path fill="#111010" d="M502.984 338.512C510.281 335.773 523.226 332.916 531.008 331.108L533.258 330.582C534.325 330.343 535.134 330.146 536.198 329.857C537.378 332.347 538.263 335.003 539.274 337.568C531.742 342.864 517.793 351.562 509.798 355.486C507.431 349.782 505.588 344.159 502.984 338.512Z"/><path fill="#D05928" d="M536.198 329.857C536.998 329.465 537.791 329.062 538.579 328.648C539.692 331.529 541.004 335.025 541.598 338.016C542.033 340.207 542.042 340.266 544.123 340.755C544.68 343.269 547.708 349.604 549.083 351.809C548.685 352.35 548.29 352.893 547.898 353.44C545.201 349.606 542.584 343.585 540.919 339.225C534.04 343.554 517.529 353.717 510.81 357.059L511.57 358.719C513.116 362.074 516.652 368.674 517.451 371.84C513.182 367.847 507.702 354.167 504.86 348.509C503.407 345.089 502.295 342.231 501.095 338.728C501.725 338.663 502.355 338.591 502.984 338.512C505.588 344.159 507.431 349.782 509.798 355.486C517.793 351.562 531.742 342.864 539.274 337.568C538.263 335.003 537.378 332.347 536.198 329.857Z"/><path fill="#020000" d="M553.72 360.237C560.984 359.507 567.478 364.768 568.271 372.026C569.063 379.283 563.858 385.823 556.608 386.678C549.268 387.543 542.631 382.26 541.829 374.914C541.026 367.567 546.367 360.976 553.72 360.237Z"/><path fill="#F4642C" d="M554.149 362.464C560.321 361.916 565.777 366.458 566.355 372.627C566.934 378.797 562.419 384.274 556.252 384.884C550.043 385.497 544.519 380.943 543.936 374.731C543.353 368.518 547.934 363.016 554.149 362.464Z"/><path fill="#111010" d="M517.511 388.431C519.248 389.655 526.047 399.904 527.492 402.182C524.132 404.462 520.525 406.795 517.323 409.259C516.988 409.234 508.843 397.413 507.567 395.789C511.73 392.787 513.545 392.009 517.511 388.431Z"/><path fill="#111010" d="M588.644 444.272C596.395 444.878 605.639 445.26 613.457 445.607C618.797 445.737 624.569 446.288 629.966 446.476C630.517 447.386 630.627 447.632 631.359 448.393C631.594 454.043 630.627 460.329 630.626 465.75C630.626 474.654 629.611 484.907 629.845 493.574C629.454 493.871 629.064 494.168 628.673 494.465C611.971 494.758 607.783 493.747 591.974 490.704L589.31 490.258L589.473 489.139C589.464 489.135 588.503 488.718 588.492 488.716C588.239 488.672 586.747 488.04 586.736 487.673C586.539 480.941 587.139 449.84 588.238 445.405L588.644 444.272Z"/><path fill="#F4642C" d="M588.644 444.272C596.395 444.878 605.639 445.26 613.457 445.607C612.143 446.658 612.121 446.661 610.543 447.323C611.472 449.982 608.512 487.018 607.891 491.553C603.437 490.782 598.472 489.937 594 489.378L592.063 489.129L591.974 490.704L589.31 490.258L589.473 489.139C589.464 489.135 588.503 488.718 588.492 488.716C588.239 488.672 586.747 488.04 586.736 487.673C586.539 480.941 587.139 449.84 588.238 445.405L588.644 444.272Z"/><path fill="#F4642C" d="M588.238 445.405L589.097 445.746C589.428 445.859 590.985 446.341 590.983 446.783C590.932 456.718 590.433 466.732 590.072 476.672C589.913 480.62 590.301 485.398 589.473 489.139C589.464 489.135 588.503 488.718 588.492 488.716C588.239 488.672 586.747 488.04 586.736 487.673C586.539 480.941 587.139 449.84 588.238 445.405Z"/><path fill="#020000" d="M588.644 444.272C596.395 444.878 605.639 445.26 613.457 445.607C612.143 446.658 612.121 446.661 610.543 447.323C606.224 447.531 597.397 446.713 592.937 446.426C592.707 451.061 591.258 487.736 592.063 489.129L591.974 490.704L589.31 490.258L589.473 489.139C590.301 485.398 589.913 480.62 590.072 476.672C590.433 466.732 590.932 456.718 590.983 446.783C590.985 446.341 589.428 445.859 589.097 445.746L588.238 445.405L588.644 444.272Z"/><path fill="#020000" d="M549.083 351.809C554.646 350.473 560.711 350.64 565.75 353.632C570.732 356.59 574.769 362.354 576.165 367.936C577.447 373.064 576.811 378.863 574.002 383.393C569.121 391.265 531.146 415.539 521.364 422.526C533.898 422.777 539.747 427.908 550.103 428.615C565.414 429.661 581.659 431.06 596.972 431.874C617.899 432.986 642.093 435.736 662.784 435.956C661.961 440.823 661.111 445.686 660.233 450.544C658.079 450.112 655.226 449.401 653.339 450.575C656.121 463.276 660.114 480.326 663.39 492.844L668.063 494.081C666.902 494.43 665.895 494.665 664.806 495.19C652.767 494.758 640.721 494.517 628.673 494.465C629.064 494.168 629.454 493.871 629.845 493.574C629.611 484.907 630.626 474.654 630.626 465.75C630.627 460.329 631.594 454.043 631.359 448.393C630.627 447.632 630.517 447.386 629.966 446.476C639.382 446.717 649.244 447.741 658.864 448.038C659.351 444.382 659.807 441.743 660.59 438.14C657.444 437.706 654.074 437.465 650.898 437.258C616.939 435.047 583.01 432.415 549.03 430.528C542.253 430.152 537.744 427.059 531.484 425.717C522.994 423.898 512.649 424.188 503.964 424.058L503.363 422.566C508.145 422.393 513.057 422.517 517.852 422.572C528.697 414.79 565.666 391.31 571.57 383.41C574.437 379.572 575.426 374.407 574.698 369.725C573.849 364.269 570.417 358.982 565.82 355.92C560.906 352.646 555.156 352.955 549.627 354.106L547.898 353.44C548.29 352.893 548.685 352.35 549.083 351.809Z"/><path fill="#F4642C" d="M631.359 448.393C631.456 448.398 633.749 448.432 633.767 448.862C634.379 463.141 632.785 477.845 632.411 492.21C632.394 492.865 630.157 493.456 629.845 493.574C629.611 484.907 630.626 474.654 630.626 465.75C630.627 460.329 631.594 454.043 631.359 448.393Z"/><path fill="#C7C6C6" d="M636.241 448.823C641.149 449.036 645.849 449.428 650.76 449.569C652.661 455.651 654.412 462.995 655.866 469.262L656.391 471.506L656.603 472.494L658.381 480.257C658.963 482.883 662.492 493.015 660.376 493.275C651.715 493.035 643.051 492.913 634.387 492.908C634.718 478.974 635.522 462.879 636.241 448.823Z"/><path fill="#020000" d="M344.792 418.125C388.147 419.826 431.644 420.152 474.914 421.808L474.955 422.411C467.612 423.224 456.038 420.871 446.77 422.592C424.589 422.553 402.41 422.083 380.247 421.182C369.479 420.783 356.747 419.944 346.206 419.967C345.751 422.644 344.663 426.322 345.507 428.585C346.879 429.749 347.499 429.475 349.65 429.591L349.478 430.689C348.418 430.928 348.278 430.954 347.195 430.982C345.201 431.15 345.119 431.185 343.113 431.796L342.657 431.931C342.594 428.084 344.016 422.071 344.792 418.125Z"/><path fill="#F4642C" d="M437.122 467.162L437.816 466.028C441.554 465.424 520.596 479.56 530.182 481.107L521.374 531.935C517.523 532.151 493.432 528.295 488.444 527.564L451.302 522.074C443.956 520.973 435.446 519.897 428.262 518.268C430.318 502.653 434.315 483.053 437.122 467.162Z"/><path fill="#111010" d="M443.684 472.772L444.441 472.951C450.641 474.457 457.321 475.604 463.655 476.255L463.494 476.927C463.364 477.454 463.234 477.98 463.104 478.506L462.09 483.256L461.063 488.255L458.366 501.995C457.863 504.552 457.474 507.128 456.942 509.68C450.635 508.176 443.916 507.039 437.476 506.253L438.378 502.244C438.557 501.42 438.764 500.556 438.934 499.743L439.898 495.242L440.423 492.744C441.748 486.157 443.077 479.466 443.684 472.772Z"/><path fill="#111010" d="M467.296 493.762L469.096 495.239C467.963 501.638 468.928 499.818 476.508 501.401L478.757 501.876L486.257 503.423C489.924 504.092 493.403 504.866 497.023 505.746C496.345 509.673 495.776 513.606 495.068 517.559C494.544 517.424 494.019 517.29 493.495 517.155L490.008 516.359L488.008 515.884C485.51 515.264 483.004 514.674 480.492 514.115L475.743 513.078C471.943 512.281 468.186 511.528 464.394 510.682C465.383 505.018 466.243 499.426 467.296 493.762Z"/><path fill="#020000" d="M469.254 483.478C477.342 485.174 516.161 492.146 520.591 494.71C516.833 496.007 477.033 487.049 470.716 485.503L469.096 495.239L467.296 493.762L469.254 483.478Z"/><path fill="#8A8989" d="M347.561 446.262C358.983 446.837 372.546 446.533 384.149 446.628C415.471 446.876 446.794 446.846 478.116 446.54C493.178 446.502 510.549 446.207 525.509 447.06C523.484 457.257 521.626 467.487 519.937 477.745C498.402 472.741 474.669 471.306 453.26 465.67C451.091 463.23 449.908 458.744 446.021 458.319C434.027 457.006 421.323 455.51 409.298 454.662C408.717 455.233 407.076 456.857 406.424 456.921C398.026 457.743 394.771 453.689 385.886 456.274C381.576 458.785 379.318 460.696 378.184 465.918C376.381 474.214 375.432 483.201 373.969 491.569C366.498 491.389 343.406 491.537 337.853 488.346C336.237 487.417 334.623 487.394 332.799 487.274C333.611 483.093 334.617 476.958 335.802 473.014L342.111 472.971C343.144 470.961 346.921 449.798 347.561 446.262Z"/><path fill="#F4642C" d="M532.011 481.118C535.062 481.799 538.164 482.418 541.286 482.64C554.898 485.672 575.101 488.288 589.31 490.258L591.974 490.704C607.783 493.747 611.971 494.758 628.673 494.465C640.721 494.517 652.767 494.758 664.806 495.19C671.569 496.325 676.589 503.084 674.222 509.515C671.913 510.499 610.881 506.076 603.524 505.93C602.56 504.146 601.196 501.258 599.654 500.045L596.938 499.499C595.044 500.711 592.133 501.782 589.976 502.478C576.718 506.516 569.189 509.592 556.955 514.974L557.634 516.34C558.598 520.281 563.522 528.924 565.465 533.339L564.398 534.024C557.137 533.204 527.85 533.557 523.25 532.098C525.876 516.514 528.907 496.224 532.011 481.118Z"/><path fill="#111010" d="M536.174 485.741C549.002 487.37 561.746 489.844 574.638 491.161C574.491 494.318 574.45 494.972 573.882 498.057C570.658 497.43 567.148 497.63 563.671 496.965C558.356 496.985 557.067 496.886 552.36 500.704C547.259 504.842 547.916 515.053 552.112 519.388C554.577 521.935 560.501 520.44 560.476 526.985C560.555 528.097 560.953 530.529 559.06 530.34C549.267 529.359 538.749 529.049 529.099 527.324L529.36 525.497C531.151 512.134 534.549 498.922 536.174 485.741Z"/><path fill="#111010" d="M563.671 496.965C567.148 497.63 570.658 497.43 573.882 498.057C575.707 498.692 581.737 498.133 585.045 498.672L585.682 498.946C587.568 499.314 592.766 499.903 589.976 502.478C576.718 506.516 569.189 509.592 556.955 514.974C554.572 505.661 556.54 506.073 562.481 504.198C563.283 503.945 563.102 499.745 563.141 498.555L563.671 496.965Z"/><path fill="#D05928" d="M563.671 496.965C567.148 497.63 570.658 497.43 573.882 498.057C575.707 498.692 581.737 498.133 585.045 498.672C579.119 499.309 569.13 499.029 563.141 498.555L563.671 496.965Z"/><path fill="#310705" d="M585.682 498.946C589.257 498.96 593.447 498.922 596.938 499.499C595.044 500.711 592.133 501.782 589.976 502.478C592.766 499.903 587.568 499.314 585.682 498.946Z"/><path fill="#C7C6C6" d="M529.16 437.348C533.216 438.812 537.759 440.666 541.679 441.972C541.102 449.873 538.542 473.622 539.436 480.649C539.523 480.778 539.61 480.908 539.696 481.038C540.013 481.985 540.593 481.818 541.286 482.64C538.164 482.418 535.062 481.799 532.011 481.118C531.316 480.614 530.679 479.932 529.739 480.065C529.555 480.091 528.16 480.223 528.25 479.727C528.415 479.539 528.605 479.457 528.832 479.318C527.605 478.742 523.88 478.32 522.257 477.958L521.799 477.86L523.601 467.255L524.117 464.505L525.623 456.506L526.106 453.754C526.985 448.6 527.643 443.034 528.984 438.027L529.16 437.348Z"/><path fill="#020000" d="M528.832 479.318C532.452 479.584 535.808 480.382 539.436 480.649C539.523 480.778 539.61 480.908 539.696 481.038C540.013 481.985 540.593 481.818 541.286 482.64C538.164 482.418 535.062 481.799 532.011 481.118C531.316 480.614 530.679 479.932 529.739 480.065C529.555 480.091 528.16 480.223 528.25 479.727C528.415 479.539 528.605 479.457 528.832 479.318Z"/><path fill="#8A8989" d="M341.879 435.035C343.842 435.517 345.113 435.572 347.104 435.875C348.414 436.578 349.051 435.681 348.546 437.359C347.639 441.254 349.149 445.626 342.859 444.303C342.198 444.164 341.9 443.513 341.567 442.975C340.91 442.919 340.908 442.903 340.258 443.042C340.509 441.298 341.358 436.686 341.879 435.035Z"/><path fill="#020000" d="M341.879 435.035C343.842 435.517 345.113 435.572 347.104 435.875C348.414 436.578 349.051 435.681 348.546 437.359C341.657 437.643 343.35 436.337 341.567 442.975C340.91 442.919 340.908 442.903 340.258 443.042C340.509 441.298 341.358 436.686 341.879 435.035Z"/><path fill="white" d="M347.195 430.982C350.048 432.3 349.433 435.026 347.104 435.875C345.113 435.572 343.842 435.517 341.879 435.035C342.693 433.559 342.634 433.608 342.657 431.931L343.113 431.796C345.119 431.185 345.201 431.15 347.195 430.982Z"/><path fill="#C7C6C6" d="M543.676 442.776C550.041 444.741 557.228 444.356 564.05 444.815C563.98 449.907 563.412 481.963 562.346 484.216C555.47 482.926 547.974 481.707 541.049 480.768C541.258 468.059 542.794 455.35 543.676 442.776Z"/><path fill="#8A8989" d="M385.886 456.274C386.615 456.592 387.738 457.134 388.463 457.33C396.75 457.517 427.42 463.153 436.155 465.6L437.122 467.162C434.315 483.053 430.318 502.653 428.262 518.268C435.446 519.897 443.956 520.973 451.302 522.074L488.444 527.564C493.432 528.295 517.523 532.151 521.374 531.935L523.25 532.098C527.85 533.557 557.137 533.204 564.398 534.024L564.481 534.987C561.732 544.269 559.34 560.014 557.746 569.678C555.843 581.131 553.754 592.554 551.479 603.939C550.859 607.146 549.02 619.492 547.899 621.221C544.663 626.214 533.985 640.459 530.176 644.394C529.031 644.216 529.58 644.358 528.523 643.39C526.938 644.514 522.939 650.226 521.672 651.981L513.497 651.809C511.01 648.775 508.572 645.703 506.182 642.592L504.885 641.985L504.429 642.247C502.63 641.697 502.017 641.579 500.145 641.312L500.065 640.681C500.819 639.433 500.77 639.345 501.13 637.904C500.286 633.266 490.756 622.114 487.12 619.043C484.086 618.374 482.612 617.951 479.445 617.993L479.482 617.294C480.504 615.979 481.447 614.42 480.455 612.765C477.42 607.701 469.779 597.062 464.538 594.98L460.771 594.155C460.96 593.61 461.476 591.744 461.314 591.266C459.546 586.059 452.495 578.692 448.833 574.614C446.048 571.513 444.094 571.452 440.961 571.499L440.828 570.72C441.448 569.859 442.469 568.693 442.101 567.524C440.314 561.677 430.159 549.914 423.863 549.716C401.941 549.028 379.336 548.94 357.428 549.748C346.889 550.136 345.185 555.779 341.941 564.375C341.696 565.023 338.922 568.427 338.276 569.233C336.571 568.142 334.752 566.807 333.077 565.635C330.197 569.613 327.052 572.99 323.78 576.633C326.093 577.868 328.386 579.333 330.628 580.706C328.889 583.296 324.623 590.501 322.004 591.342L321.331 590.733C320.221 585.053 333.759 521.871 335.238 510.942C335.777 506.961 338.475 496.579 338.482 492.113C337.506 491.284 337.801 491.361 337.276 489.916C335.157 489.553 332.516 489.367 330.336 489.15C331.878 483.468 332.977 477 334.101 471.171C335.956 471.195 338.165 471.534 340.034 471.763C340.794 472.178 341.406 472.47 342.111 472.971L335.802 473.014C334.617 476.958 333.611 483.093 332.799 487.274C334.623 487.394 336.237 487.417 337.853 488.346C343.406 491.537 366.498 491.389 373.969 491.569C375.432 483.201 376.381 474.214 378.184 465.918C379.318 460.696 381.576 458.785 385.886 456.274Z"/><path fill="#F4642C" d="M522.72 534.445C535.837 534.745 549.083 535.646 562.266 536.07C557.79 557.115 554.372 577.656 550.423 598.765C549.74 602.415 547.123 618.737 545.786 621.013C541.77 627.854 533.522 636.647 528.523 643.39C526.938 644.514 522.939 650.226 521.672 651.981L513.497 651.809C511.01 648.775 508.572 645.703 506.182 642.592C507.493 636.448 508.192 629.857 509.102 623.619C513.43 593.943 517.685 564.005 522.72 534.445Z"/><path fill="#F4642C" d="M388.463 457.33C396.75 457.517 427.42 463.153 436.155 465.6C434.969 468.96 433.298 479.135 432.575 483.057C430.441 494.631 428.228 506.438 426.794 518.105C417.086 516.248 407.361 514.487 397.619 512.824C391.989 511.821 383.671 510.519 378.411 508.673C377.694 507.947 374.861 504.733 374.836 503.516C374.604 491.879 378.304 474.166 381.337 462.818C382.072 460.069 386.626 457.982 388.463 457.33Z"/><path fill="#111010" d="M411.212 465.607C415.331 466.554 419.555 467.273 423.724 467.95C423.39 471.491 422.935 474.982 422.379 478.497L421.581 483.504C420.972 487.43 420.232 491.335 419.578 495.254L418.873 499.496C418.197 503.629 417.693 508.918 416.743 512.846C412.524 512.047 408.168 510.842 403.912 509.927L405.426 499.997C405.868 496.904 406.352 493.814 406.944 490.745L407.418 487.996C408.654 480.553 409.916 473.035 411.212 465.607Z"/><path fill="#111010" d="M385.972 460.846L386.627 460.985C391.162 461.984 395.252 462.735 399.815 463.898C398.748 468.531 398.012 473.111 397.065 477.754C396.534 480.581 396.038 483.415 395.578 486.254C394.853 490.75 394.299 495.275 393.575 499.753C393.244 502.295 392.83 504.825 392.333 507.34C391.778 507.427 381.502 505.563 379.302 505.33C381.474 492.133 385.467 473.675 385.972 460.846Z"/><path fill="#020000" d="M385.886 456.274C386.615 456.592 387.738 457.134 388.463 457.33C386.626 457.982 382.072 460.069 381.337 462.818C378.304 474.166 374.604 491.879 374.836 503.516C374.861 504.733 377.694 507.947 378.411 508.673C383.671 510.519 391.989 511.821 397.619 512.824C407.361 514.487 417.086 516.248 426.794 518.105C428.228 506.438 430.441 494.631 432.575 483.057C433.298 479.135 434.969 468.96 436.155 465.6L437.122 467.162C434.315 483.053 430.318 502.653 428.262 518.268C435.446 519.897 443.956 520.973 451.302 522.074L488.444 527.564C493.432 528.295 517.523 532.151 521.374 531.935L523.25 532.098C527.85 533.557 557.137 533.204 564.398 534.024L564.481 534.987C561.732 544.269 559.34 560.014 557.746 569.678C555.843 581.131 553.754 592.554 551.479 603.939C550.859 607.146 549.02 619.492 547.899 621.221C544.663 626.214 533.985 640.459 530.176 644.394C529.031 644.216 529.58 644.358 528.523 643.39C533.522 636.647 541.77 627.854 545.786 621.013C547.123 618.737 549.74 602.415 550.423 598.765C554.372 577.656 557.79 557.115 562.266 536.07C549.083 535.646 535.837 534.745 522.72 534.445C517.685 564.005 513.43 593.943 509.102 623.619C508.192 629.857 507.493 636.448 506.182 642.592L504.885 641.985C506.776 622.014 510.847 599.719 513.822 579.9C516.057 565.006 518.02 548.801 520.852 534.183C476.054 527.385 431.429 521.783 387.023 512.683C374.117 510.039 370.81 506.564 373.807 493.546C362.467 493.386 349.774 491.589 338.482 492.113C337.506 491.284 337.801 491.361 337.276 489.916C335.157 489.553 332.516 489.367 330.336 489.15C331.878 483.468 332.977 477 334.101 471.171C335.956 471.195 338.165 471.534 340.034 471.763C340.794 472.178 341.406 472.47 342.111 472.971L335.802 473.014C334.617 476.958 333.611 483.093 332.799 487.274C334.623 487.394 336.237 487.417 337.853 488.346C343.406 491.537 366.498 491.389 373.969 491.569C375.432 483.201 376.381 474.214 378.184 465.918C379.318 460.696 381.576 458.785 385.886 456.274Z"/><path fill="#F4642C" d="M596.938 499.499L599.654 500.045L589.788 503.702C595.56 511.405 604.863 528.215 609.567 537.169C611.408 536.222 617.317 533.546 618.378 532.537C614.685 526.725 607.403 514.208 604.524 507.914C624.579 508.694 644.615 510.349 664.666 511.289C667.875 511.439 671.548 511.52 674.706 511.938C666.395 551.574 660.634 592.035 652.023 631.648C651.721 633.036 650.117 635.724 649.357 637.034C649.494 637.848 649.554 638.534 649.627 639.349C648.476 640.932 646.472 644.289 645.408 646.097L644.113 645.002C640.569 645.398 634.058 645.012 630.289 644.946C622.97 644.857 615.65 644.82 608.331 644.835C600.706 644.838 532.515 645.456 530.176 644.394C533.985 640.459 544.663 626.214 547.899 621.221C549.02 619.492 550.859 607.146 551.479 603.939C553.754 592.554 555.843 581.131 557.746 569.678C559.34 560.014 561.732 544.269 564.481 534.987L564.398 534.024L565.465 533.339C563.522 528.924 558.598 520.281 557.634 516.34L556.955 514.974C569.189 509.592 576.718 506.516 589.976 502.478C592.133 501.782 595.044 500.711 596.938 499.499Z"/><path fill="#D05928" d="M596.938 499.499L599.654 500.045L589.788 503.702C595.56 511.405 604.863 528.215 609.567 537.169C611.408 536.222 617.317 533.546 618.378 532.537L619.01 534.043C614.724 535.819 614.81 535.687 610.685 538.022C612.581 547.337 612.861 559.702 613.566 569.447L612.049 570.237L611.308 570.498C608.387 571.582 605.342 572.258 602.415 573.312L601.226 573.799C599.614 574.03 598.061 574.49 596.492 574.917L595.509 575.163C593.884 575.579 592.116 576.175 590.454 576.161L589.296 575.324L588.885 577.836C585.011 578.628 580.799 579.179 576.857 579.811C576.989 570.776 576.765 562.338 576.613 553.377L575.62 552.755C574.109 552.01 568.523 538.587 566.094 535.592L564.481 534.987L564.398 534.024L565.465 533.339C563.522 528.924 558.598 520.281 557.634 516.34L556.955 514.974C569.189 509.592 576.718 506.516 589.976 502.478C592.133 501.782 595.044 500.711 596.938 499.499Z"/><path fill="#111010" d="M557.634 516.34C560.441 514.635 563.397 513.279 566.366 511.888C570.159 520.298 580.34 538.276 585.419 546.189C582.119 548.292 578.764 550.79 575.62 552.755C574.109 552.01 568.523 538.587 566.094 535.592L564.481 534.987L564.398 534.024L565.465 533.339C563.522 528.924 558.598 520.281 557.634 516.34Z"/><path fill="#D05928" d="M565.465 533.339C565.644 534.171 565.843 534.785 566.094 535.592L564.481 534.987L564.398 534.024L565.465 533.339Z"/><path fill="#111010" d="M587.655 546.058C590.089 545.346 592.541 544.698 595.008 544.114C596.296 543.82 597.483 543.517 598.759 543.21C599.725 553.56 600.707 563.375 601.226 573.799C599.614 574.03 598.061 574.49 596.492 574.917L595.509 575.163C593.884 575.579 592.116 576.175 590.454 576.161C589.239 565.885 590.457 556.499 587.655 546.058Z"/><path fill="#111010" d="M576.613 553.377C579.953 551.111 583.386 548.963 586.623 546.738C588.007 554.776 588.733 562.065 588.564 570.25C588.513 572.753 588.57 575.355 588.885 577.836C585.011 578.628 580.799 579.179 576.857 579.811C576.989 570.776 576.765 562.338 576.613 553.377Z"/><path fill="#111010" d="M599.927 543.016L605.495 541.873C607.301 541.5 608.608 541.139 610.378 540.592C610.627 550.707 611.452 560.201 612.049 570.237L611.308 570.498C608.387 571.582 605.342 572.258 602.415 573.312C601.719 571.95 600.413 547.157 599.927 543.016Z"/><path fill="#111010" d="M588.363 504.074C591.204 506.466 605.816 534.164 609.189 539.54L604.948 540.372C599.824 541.366 592.562 543.188 587.665 544.915C587.538 544.937 586.817 545.079 586.761 544.998C582.248 538.411 570.696 516.935 567.755 511.306C574.549 508.795 581.542 506.534 588.363 504.074Z"/><path fill="#111010" d="M619.01 534.043C620.616 536.188 621.166 562.732 621.48 567.578L617.269 568.635C615.924 568.973 614.952 569.241 613.566 569.447C612.861 559.702 612.581 547.337 610.685 538.022C614.81 535.687 614.724 535.819 619.01 534.043Z"/><path fill="#020000" d="M649.357 637.034C649.494 637.848 649.554 638.534 649.627 639.349C648.476 640.932 646.472 644.289 645.408 646.097L644.113 645.002C646.338 642.398 647.344 639.9 649.357 637.034Z"/><path fill="#020000" d="M583.834 607.029C585.984 607 594.325 606.719 596.085 607.35C597.53 607.867 596.803 613.517 596.971 615.003C597.203 617.053 597.881 621.013 594.384 619.752C594.291 619.029 594.096 616.559 593.853 616.285C592.11 615.724 588.486 615.821 586.744 616.321C586.134 618.084 587.197 621.05 583.735 619.329C582.935 618.932 583.65 608.355 583.834 607.029Z"/><path fill="#F4642C" d="M586.294 609.144C592.292 608.973 594.201 607.487 594.081 613.391C587.488 613.225 585.966 615.053 586.294 609.144Z"/><path fill="#020000" d="M564.68 606.143C565.203 606.254 567.268 606.543 567.415 606.805C568.473 608.687 567.265 613.969 567.523 616.034C567.721 617.622 569.959 617.047 570.238 616.855C572.168 615.523 570.28 609.298 571.229 607.188C571.474 606.685 572.991 606.228 573.286 606.803C574.468 608.492 573.338 612.18 573.729 614.252C573.949 615.417 573.186 616.942 574.974 617.085C578.528 617.619 577.483 614.307 577.51 611.711C577.511 611.819 576.52 604.363 579.869 606.845C580.335 607.191 580.188 614.711 580.284 616.258L580.476 619.666C575.003 620.023 569.868 619.996 564.386 620.005C564.417 615.383 564.515 610.762 564.68 606.143Z"/><path fill="#020000" d="M645.369 606.724C645.883 606.678 648.544 606.304 648.917 607.033C651.808 612.676 636.127 607.05 638.236 611.594C639.147 612.719 647.485 612.122 647.775 612.327C651.442 614.923 644.66 614.551 644.641 614.556C642.412 615.087 636.189 612.786 638.618 617C640.209 617.218 648.905 617.759 649.216 618.05C652.597 621.223 637.635 620.007 636.133 619.991C635.588 606.079 633.377 607.435 645.369 606.724Z"/><path fill="#020000" d="M600.025 606.51L600.655 606.615C601.96 606.822 602.316 606.812 602.334 608.192L602.358 617.143C605.48 617.305 608.963 617.129 611.941 617.651C612.306 617.715 612.796 619.428 612.878 619.665C609.682 620.252 603.47 620.008 599.986 619.959C599.871 615.476 599.884 610.991 600.025 606.51Z"/><path fill="#020000" d="M614.478 606.557C617.943 607.925 616.48 613.376 616.523 617.319C620.478 617.429 624.725 615.991 625.917 619.609C622.328 620.371 618.058 620.169 614.379 620.068C614.314 615.681 614.207 610.915 614.478 606.557Z"/><path fill="#020000" d="M628.436 611.276C629.138 610.549 630.289 610.506 631.043 611.178C631.798 611.851 631.887 612.999 631.245 613.78C630.807 614.313 630.111 614.564 629.433 614.433C628.755 614.302 628.203 613.81 627.995 613.151C627.787 612.493 627.956 611.773 628.436 611.276Z"/><path fill="#F4642C" d="M624.537 686.757C628.443 686.218 630.264 686.162 633.851 687.49L634.483 687.58L634.294 688.415C631.47 700.093 635.783 714.489 635.006 726.401C634.641 727.153 634.348 727.847 634.021 728.613C633.977 728.958 633.656 729.882 633.538 730.256C630.515 732.474 617.657 731.443 613.514 731.349L585.887 730.802L556.171 730.485C544.587 730.351 533.452 731.579 524.141 723.849C529.105 714.143 534.753 701.161 539.474 691.049C560.856 690.551 582.349 688.675 603.749 688.127C610.577 687.952 617.79 687.652 624.537 686.757Z"/><path fill="#63160F" d="M633.851 687.49L634.483 687.58L634.294 688.415C631.47 700.093 635.783 714.489 635.006 726.401C634.641 727.153 634.348 727.847 634.021 728.613C634.06 721.259 633.904 715.778 633.029 708.5C632.163 701.302 631.907 694.558 633.851 687.49Z"/><path fill="#111010" d="M593.375 693.269C593.403 693.26 594.635 692.889 594.516 693.327C591.599 704.083 587.47 715.943 583.643 726.412C581.162 726.401 578.681 726.349 576.202 726.256C576.136 726.244 574.309 726.063 574.417 725.688C577.46 715.055 582.223 704.559 585.44 693.852C588.098 693.63 590.722 693.48 593.375 693.269Z"/><path fill="#111010" d="M569.303 694.52C572.695 694.43 575.991 694.315 579.387 694.289C574.852 703.875 570.886 715.725 567.33 725.774C564.627 725.909 560.826 725.627 558.004 725.506C561.511 715.155 565.973 704.778 569.303 694.52Z"/><path fill="#111010" d="M552.982 695.582C556.001 695.536 559.019 695.458 562.035 695.348C558.033 705.885 554.751 715.207 550.372 725.808C547.45 725.634 544.393 725.653 541.442 725.561C544.922 716.569 549.856 704.346 552.982 695.582Z"/><path fill="#020000" d="M626.138 718.792C627.398 717.786 629.223 717.93 630.31 719.122C631.396 720.314 631.371 722.144 630.252 723.306C629.461 724.128 628.278 724.441 627.184 724.119C626.089 723.797 625.265 722.892 625.045 721.773C624.825 720.653 625.247 719.504 626.138 718.792Z"/><path fill="#310705" d="M625.768 690.74C626.623 690.072 627.857 690.222 628.527 691.076C629.196 691.93 629.048 693.164 628.196 693.835C627.341 694.508 626.103 694.36 625.431 693.504C624.76 692.648 624.911 691.41 625.768 690.74Z"/><path fill="#3A3A3B" d="M452.088 738.002C442.021 744.579 432.157 747.627 420.214 747.843L419.967 747.417C428.856 746.383 436.182 745.307 444.262 741.336C465.038 731.125 477.059 712.337 472.114 688.965C469.557 676.882 461.973 668.31 454.819 658.594C451.492 654.074 447.005 650.158 445.177 644.821C446.959 645.453 458.42 662.968 460.287 663.096C472.258 663.915 484.559 663.296 496.6 663.335C501.054 663.35 512.848 664.36 516.157 662.582C517.447 660.59 517.112 658.05 517.526 655.096L517.93 654.871C518.728 657.438 518.202 659.261 517.821 661.954C522.385 668.748 530.89 676.043 525.617 686.076C522.293 692.401 528.763 693.801 526.204 701.035C524.209 706.674 522.492 714.19 516.728 717.333C515.637 717.906 515.179 717.9 514.661 718.998C517.208 724.31 511.815 726.005 513.293 730.281L512.803 730.265C508.375 734.421 506.375 737.131 499.754 737.626C497.097 737.825 494.416 738.339 491.703 737.776C491.319 738.109 490.959 738.4 490.564 738.718C481.4 737.835 462.079 738.077 452.088 738.002Z"/><path fill="#111010" d="M470.092 718.611C476.614 718.626 510.185 718.094 513.944 719.771C515.832 723.237 511.361 725.659 512.803 730.265C508.375 734.421 506.375 737.131 499.754 737.626C497.097 737.825 494.416 738.339 491.703 737.776C487.916 736.914 459.853 736.924 453.559 736.868C461.295 731.539 465.195 726.426 470.092 718.611Z"/><path fill="#111010" d="M473.304 689.529C479.718 689.423 520.384 688.449 523.121 690.209C524.435 691.055 525.158 692.839 525.416 694.311C526.596 701.02 522.756 708.492 519.126 713.869C518.841 714.181 518.549 714.487 518.251 714.788C517.256 715.781 515.822 716.938 514.401 717.045C500.382 718.102 484.541 717.495 470.554 717.38C473.91 708.188 475.412 699.202 473.304 689.529Z"/><path fill="#111010" d="M516.724 663.826L517.461 663.921C522.51 668.727 525.923 673.209 526.046 680.46C526.087 682.913 525.605 685.672 523.668 687.367C522.383 688.491 477.262 688.585 473.326 687.991L472.721 686.888C470.181 677.946 466.674 673.003 461.567 665.39C467.071 662.457 509.308 666.783 516.724 663.826Z"/><path fill="#F4642C" d="M635.345 686.538C635.626 686.197 635.997 685.804 636.218 685.43C642.53 674.74 657.269 666.393 669.997 671.009L673.488 672.278C681.04 680.364 685.138 687.649 684.889 699.122C684.683 708.609 681.162 717.544 674.124 724.05C668.145 729.643 660.168 732.598 651.988 732.25C646.714 732.017 639.118 729.713 635.006 726.401C635.783 714.489 631.47 700.093 634.294 688.415L634.483 687.58L635.345 686.538Z"/><path fill="#020000" d="M661.19 676.131C662.203 676.059 667.206 675.584 667.867 676.349C668.811 677.441 667.816 678.125 666.505 678.038C656.369 677.31 645.033 683.031 643.027 693.75C640.176 708.986 648.21 719.67 663.624 720.277C663.636 720.276 669.986 719.584 667.391 721.718C665.137 722.589 660.621 721.849 658.493 721.613C641.168 719.692 635.74 698.63 644.603 685.557C648.62 679.633 654.295 677.236 661.19 676.131Z"/><path fill="#111010" d="M479.445 617.993C482.612 617.951 484.086 618.374 487.12 619.043C490.756 622.114 500.286 633.266 501.13 637.904C500.77 639.345 500.819 639.433 500.065 640.681C481.595 640.085 462.129 641.146 443.682 640.298C440.102 640.133 427.748 622.152 424.655 618.052C441.198 618.164 463.314 618.788 479.445 617.993Z"/><path fill="#111010" d="M693.702 689.023C709.464 689.148 726 688.579 741.605 688.929C745.794 699.251 743.99 711.262 734.523 718.022L691.919 717.831C695.792 706.173 696.672 700.881 693.702 689.023Z"/><path fill="#111010" d="M407.568 594.995L464.538 594.98C469.779 597.062 477.42 607.701 480.455 612.765C481.447 614.42 480.504 615.979 479.482 617.294C477.223 616.774 465.044 616.956 462.006 616.96L423.917 617.038C418.376 609.758 412.926 602.41 407.568 594.995Z"/><path fill="#111010" d="M718.773 641.92C723.85 644.154 729.6 650.856 731.627 655.911C732.507 658.132 732.726 660.56 732.256 662.903C726.456 664.52 687.276 663.371 677.758 663.619C672.315 656.391 666.482 649.238 660.971 641.976C664.294 642.262 667.601 642.298 670.934 642.227C686.814 641.891 702.92 642.561 718.773 641.92Z"/><path fill="#111010" d="M733.316 664.097C740.043 670.062 746.24 678.914 741.661 688.039L693.394 688.079C689.995 677.537 685.546 673.155 678.633 664.554C687.661 664.443 696.69 664.487 705.717 664.685C713.687 664.842 725.652 665.291 733.316 664.097Z"/><path fill="#8A8989" d="M649.627 639.349C656.643 650.38 667.162 662.154 673.488 672.278L669.997 671.009C657.269 666.393 642.53 674.74 636.218 685.43C635.997 685.804 635.626 686.197 635.345 686.538L634.483 687.58L633.851 687.49C630.264 686.162 628.443 686.218 624.537 686.757L625.119 685.356C625.868 681.383 642.33 652.37 645.408 646.097C646.472 644.289 648.476 640.932 649.627 639.349Z"/><path fill="#020000" d="M625.119 685.356C629.834 684.888 631.135 684.688 635.345 686.538L634.483 687.58L633.851 687.49C630.264 686.162 628.443 686.218 624.537 686.757L625.119 685.356Z"/><path fill="#3A3A3B" d="M691.31 719.055C689.334 721.738 682.462 728.971 679.594 730.72C680.875 728.751 682.792 727.075 684.555 725.509C690.818 719.84 693.888 710.714 694.265 702.425C695.448 676.341 669.777 659.292 657.462 638.767C656.146 636.575 654.193 635.464 653.068 633.004L653.508 632.596C655.81 633.821 658.491 640.882 662.249 641.023C679.862 641.688 697.991 640.402 715.574 641.251C716.639 641.481 717.705 641.704 718.773 641.92C702.92 642.561 686.814 641.891 670.934 642.227C667.601 642.298 664.294 642.262 660.971 641.976C666.482 649.238 672.315 656.391 677.758 663.619C687.276 663.371 726.456 664.52 732.256 662.903L733.316 664.097C725.652 665.291 713.687 664.842 705.717 664.685C696.69 664.487 687.661 664.443 678.633 664.554C685.546 673.155 689.995 677.537 693.394 688.079L741.661 688.039L741.605 688.929C726 688.579 709.464 689.148 693.702 689.023C696.672 700.881 695.792 706.173 691.919 717.831L734.523 718.022L734.441 718.946C723.527 719.878 703.085 719.079 691.31 719.055Z"/><path fill="#3A3A3B" d="M500.145 641.312C492.468 642.481 445.328 640.994 443.346 642.166L444.347 643.603L443.875 644.186C439.861 640.275 433.709 631.938 430.13 627.257C421.718 616.206 413.435 605.057 405.285 593.811C421.3 594.128 445.067 592.614 460.771 594.155L464.538 594.98L407.568 594.995C412.926 602.41 418.376 609.758 423.917 617.038L462.006 616.96C465.044 616.956 477.223 616.774 479.482 617.294L479.445 617.993C463.314 618.788 441.198 618.164 424.655 618.052C427.748 622.152 440.102 640.133 443.682 640.298C462.129 641.146 481.595 640.085 500.065 640.681L500.145 641.312Z"/><path fill="white" d="M512.803 730.265L513.293 730.281C520.423 734.315 521.571 736.998 531.031 740.798C528.955 741.893 527.623 741.456 524.955 741.94C518.987 742.092 494.348 742.409 489.198 741.621L489.386 740.673C489.804 739.872 490.057 739.477 490.564 738.718C490.959 738.4 491.319 738.109 491.703 737.776C494.416 738.339 497.097 737.825 499.754 737.626C506.375 737.131 508.375 734.421 512.803 730.265Z"/><path fill="#3A3A3B" d="M533.284 741.37C571.556 743.412 610.323 744.763 648.643 745.412C657.3 745.558 674.681 734.421 675.409 734.524C674.822 735.279 674.668 735.52 674.2 736.356C675.803 737.121 709.765 736.944 714.978 737.253L713.829 738.577C710.932 737.444 678.618 738.039 673.033 737.947C672.359 737.936 669.613 738.875 668.909 739.277C664.866 741.588 654.666 746.302 650.067 746.344C637.919 746.456 537.99 743.684 533.006 742.077L533.284 741.37Z"/><path fill="#3A3A3B" d="M388.495 571.818L388.576 571.951C383.502 565.396 378.688 559.693 371.389 555.529C368.945 554.135 365.691 553.106 363.783 551.433C371.48 550.321 388.855 569.995 389.422 570.073C404.923 572.208 425.372 568.703 440.828 570.72L440.961 571.499C436.028 572.226 426.416 571.92 421.175 571.882C410.282 571.745 399.388 571.724 388.495 571.818Z"/><path fill="#3A3A3B" d="M299.862 740.883C303.358 741.622 309.525 743.876 312.597 744.197C320.278 744.999 328.712 744.906 336.454 745.003C344.202 745.12 351.947 745.362 359.688 745.729C363.554 745.889 368.99 745.961 372.702 746.511C363.869 747.917 352.724 746.218 343.675 746.229C327.438 746.25 315.215 746.526 299.48 741.586L299.862 740.883Z"/><path fill="#3A3A3B" d="M692.928 619.037C689.489 619.421 656.69 619.989 656.005 618.617C656.973 617.542 690.256 618.164 693.839 618.278L692.928 619.037Z"/><path fill="#8A8989" d="M679.027 596.423C677.284 596.509 662.071 596.8 661.154 596.226C661.312 594.529 673.261 595.267 674.7 595.56C675.584 596.27 677.384 596.102 679.027 596.423Z"/><path fill="#3A3A3B" d="M711.677 742.025C710.396 743.373 699.259 752.942 698.179 749.74C706.068 746.297 704.826 746.076 711.216 741.502L711.677 742.025Z"/><path fill="#3A3A3B" d="M489.198 741.621C487.095 742.809 484.136 746.754 482.241 747.128L481.948 746.868C482.094 745.881 487.286 741.533 488.446 741.068L489.386 740.673L489.198 741.621Z"/><path fill="#8A8989" d="M531.031 740.798C531.834 740.977 532.497 741.155 533.284 741.37L533.006 742.077C530.227 741.921 527.749 742.073 524.955 741.94C527.623 741.456 528.955 741.893 531.031 740.798Z"/><path fill="#F4642C" d="M315.516 632.784C315.496 632.726 315.29 632.332 315.376 632.159C315.572 631.762 316.617 631.59 316.988 631.531C317.239 631.492 317.491 631.466 317.741 631.422C318.701 631.253 319.659 630.979 320.612 630.772C324.665 633.391 328.365 636.514 332.231 639.051C341.797 645.33 350.983 649.441 353.133 661.992C354.342 669.049 353.471 673.433 351.484 680.276C351.145 681.495 350.747 681.644 349.594 681.909C351.603 682.535 351.058 681.941 351.988 683.265C369.527 681.7 387.746 681.742 405.372 680.44C408.446 680.213 408.936 681.107 411.025 683.174L412.214 683.492C411.089 688.512 410.896 724.997 412.537 727.075C411.783 727.42 411.722 727.364 411.25 727.92C411.093 728.662 410.95 729.44 410.698 730.155C410.257 731.406 409.815 732.222 408.553 732.776C406.817 733.537 325.871 731.483 317.158 730.933C314.394 730.758 311.66 730.254 309.015 729.431C284.88 721.794 279.657 693.101 286.655 671.525C287.822 667.857 289.414 664.339 291.398 661.041C293.74 657.141 310.574 633.854 312.976 632.859C313.714 632.553 314.321 633.209 314.96 633.566L315.516 632.784Z"/><path fill="#111010" d="M330.613 684.514C327.493 688.887 324.978 693.567 322.234 698.181C319.009 703.604 314.302 707.614 307.742 704.989C301.805 702.826 299.463 695.156 302.599 689.774C308.471 679.694 315.484 669.847 321.839 660.025C323.166 657.975 325.836 654.139 328.143 653.502C333.547 652.009 339.353 657.687 340.71 662.526C342.598 670.503 335.338 676.262 332.063 682.555L331.964 683.446C334.074 684.293 337.526 683.818 340.114 684.066C337.113 684.53 333.684 684.463 330.613 684.514Z"/><path fill="#F4642C" d="M315.516 632.784C315.496 632.726 315.29 632.332 315.376 632.159C315.572 631.762 316.617 631.59 316.988 631.531C317.239 631.492 317.491 631.466 317.741 631.422C318.701 631.253 319.659 630.979 320.612 630.772C324.665 633.391 328.365 636.514 332.231 639.051C341.797 645.33 350.983 649.441 353.133 661.992C354.342 669.049 353.471 673.433 351.484 680.276C351.145 681.495 350.747 681.644 349.594 681.909C342.908 680.536 346.107 681.622 347.931 674.233C352.321 656.447 341.032 648.355 327.432 640.436C323.524 638.16 319.895 634.72 315.516 632.784Z"/><path fill="#020000" d="M315.516 632.784C319.895 634.72 323.524 638.16 327.432 640.436C341.032 648.355 352.321 656.447 347.931 674.233C346.107 681.622 342.908 680.536 349.594 681.909C351.603 682.535 351.058 681.941 351.988 683.265C348.4 683.592 343.603 684.166 340.114 684.066C337.526 683.818 334.074 684.293 331.964 683.446L332.063 682.555C334.482 682.062 339.551 681.904 342.224 681.75C345.639 676.292 347.493 670.23 346.452 663.739C345.824 659.808 344.094 656.135 341.464 653.147C338.128 649.308 320.714 637.878 314.96 633.566L315.516 632.784Z"/><path fill="#63160F" d="M411.025 683.174L412.214 683.492C411.089 688.512 410.896 724.997 412.537 727.075C411.783 727.42 411.722 727.364 411.25 727.92C410.668 725.506 411.062 719.791 410.897 717.008C410.581 711.688 410.271 706.253 409.997 700.922C409.693 695.01 410.547 689.018 411.025 683.174Z"/><path fill="#111010" d="M362.321 686.705C365.751 686.594 369.181 686.502 372.612 686.429C367.967 698.941 362.313 714.663 358.42 727.347C357.188 727.41 350.689 726.994 348.656 726.958C352.389 715.47 359.585 697.514 362.321 686.705Z"/><path fill="#111010" d="M346.307 687.706C349.547 687.562 352.789 687.469 356.031 687.425C351.512 700.831 346.532 713.671 341.922 726.955C339.03 726.847 336.129 726.962 333.256 726.576L332.263 726.461C336.188 716.309 343.145 698.101 346.307 687.706Z"/><path fill="#111010" d="M329.915 688.29C333.275 688.548 336.219 688.41 339.571 688.335C335.235 699.914 330.084 715.237 325.602 726.228C324.238 726.65 317.955 726.583 316.034 726.676C319.86 713.3 325.347 701.304 329.915 688.29Z"/><path fill="#020000" d="M402.53 715.377C406.676 716.799 409.401 720.033 404.266 722.72C398.429 722.142 397.471 718.326 402.53 715.377Z"/><path fill="#020000" d="M400.615 685.429C401.642 684.756 402.953 684.69 404.043 685.258C405.132 685.825 405.83 686.937 405.867 688.165C405.904 689.393 405.274 690.545 404.221 691.177C402.636 692.128 400.582 691.637 399.6 690.071C398.618 688.505 399.069 686.442 400.615 685.429Z"/><path fill="#F4642C" d="M428.999 636.667L440.813 652.178L442.581 654.478C445.223 657.954 455.658 671.612 456.938 674.343C463.195 685.462 466.085 695.706 462.413 708.466C459.831 717.308 453.83 724.755 445.739 729.158C433.358 735.864 424.219 732.807 412.537 727.075C410.896 724.997 411.089 688.512 412.214 683.492C412.807 682.204 413.848 680.398 414.538 679.109C412.273 675.477 410.663 672.594 408.179 669.044C412.792 660.682 423.376 644.786 428.999 636.667Z"/><path fill="#8A8989" d="M428.999 636.667L440.813 652.178L442.581 654.478C445.223 657.954 455.658 671.612 456.938 674.343C454.747 673.218 453.091 671.632 451.143 670.805C445.567 668.438 437.333 668.836 431.494 669.876C424.003 671.211 419.655 673.746 414.538 679.109C412.273 675.477 410.663 672.594 408.179 669.044C412.792 660.682 423.376 644.786 428.999 636.667Z"/><path fill="#020000" d="M438.778 675.188C439.755 675.046 444.613 674.135 444.184 676.255C444.001 677.161 442.428 677.008 441.802 677.001C435.765 676.958 429.876 677.797 425.304 682.128C416.827 690.159 415.987 704.915 424.28 713.411C429.306 718.559 435.361 718.794 442.122 718.897C442.968 718.881 443.94 718.958 444.089 719.981C443.931 720.169 443.708 720.413 443.435 720.448C438.333 720.982 431.816 720.823 427.226 718.266C410.577 708.992 413.799 680.842 432.506 676.067C434.675 675.513 436.566 675.424 438.778 675.188Z"/><path fill="#8A8989" d="M380.189 575.473C383.11 578.212 391.022 589.846 393.741 593.728C384.103 607.61 373.541 622.997 363.479 636.5C354.637 636.233 345.79 636.137 336.944 636.212L330.632 635.97L322.027 628.966C327.201 622.124 331.438 615.709 336.028 608.493C342.841 607.75 350.526 607.352 357.38 606.964C365.048 596.514 372.651 586.016 380.189 575.473Z"/><path fill="#F4642C" d="M363.931 565.168C369.391 565.755 374.432 568.368 378.061 572.489C378.437 572.908 378.813 573.327 379.189 573.745C372.72 583.533 363.826 595.012 356.784 605.326L347.605 605.571C335.559 606.79 335.191 608.269 332.03 596.54C337.999 589.117 342.849 582.116 348.536 574.715L349.607 573.308C354.437 567.046 356.348 566.137 363.931 565.168Z"/><path fill="#F4642C" d="M400.558 601.363C406.188 607.01 415.864 620.487 421.374 627.326C419.081 628.803 416.916 630.089 414.597 631.496C409.899 633.713 404.064 635.05 399.76 631.489C390.642 623.944 396.294 610.495 400.153 602.25L400.558 601.363Z"/><path fill="#8A8989" d="M323.501 540.655L324.464 540.813C325.853 541.035 326.619 540.719 327.524 541.788C326.788 544.374 326.475 548.274 325.382 550.696C324.972 551.256 321.644 551.079 321.571 550.694C321.183 548.639 322.038 542.043 323.501 540.655Z"/><path fill="#8A8989" d="M322.963 539.141C323.445 537.354 323.804 535.538 324.039 533.703C324.388 530.974 328.798 532.746 328.801 532.676C328.758 533.955 329.308 539.274 326.043 540.041C324.713 539.752 324.133 539.733 322.963 539.141Z"/><path fill="#020000" d="M323.501 540.655C322.659 539.983 322.319 539.963 322.963 539.141C324.133 539.733 324.713 539.752 326.043 540.041C327.124 540.255 329.159 539.953 327.524 541.788C326.619 540.719 325.853 541.035 324.464 540.813L323.501 540.655Z"/><path fill="#3A3A3B" d="M677.248 732.571C677.574 732.466 677.469 732.47 677.617 732.489C677.494 732.652 677.372 732.815 677.249 732.978C677.114 733.038 676.978 733.099 676.843 733.16L676.812 733.132C676.958 732.945 677.103 732.758 677.248 732.571Z"/><path fill="#8A8989" d="M530.941 212.46C533.582 213.254 536.133 214.188 537.675 216.545C542.899 224.533 543.265 236.889 548.204 244.899L548.373 246.536C537.373 251.86 529.855 255.416 525.479 268.096C521.137 280.678 523.6 297.711 529.497 309.407C532.705 315.921 537.454 321.553 543.333 325.814L542.334 326.466C540.968 327.341 540.065 327.944 538.579 328.648C537.791 329.062 536.998 329.465 536.198 329.857C535.134 330.146 534.325 330.343 533.258 330.582L531.008 331.108C523.226 332.916 510.281 335.773 502.984 338.512C502.355 338.591 501.725 338.663 501.095 338.728C502.295 342.231 503.407 345.089 504.86 348.509C488.403 353.95 460.954 367.706 444.506 361.932C443.193 361.471 422.385 347.711 421.046 346.521C419.49 350.827 417.851 355.102 416.13 359.345C411.281 356.995 404.234 352.466 399.339 349.723C387.384 343.026 375.485 335.943 363.348 329.575C363.785 317.283 365.013 302.689 366.101 290.395C376.215 288.318 387.429 285.207 397.501 282.613C414.045 278.42 430.549 274.072 447.011 269.569C447.001 273.567 447.095 275.608 447.58 279.567C452.925 277.397 467.155 273.361 470.909 271.228C468.846 263.75 457.87 238.455 466.203 234.051C499.102 216.662 495.875 235.849 504.851 259.83L514.602 256.652C512.036 248.346 508.956 240.11 506.611 231.813C503.714 221.565 510.534 218.438 518.855 215.888C523.063 214.599 526.52 213.209 530.941 212.46Z"/><path fill="white" d="M366.101 290.395C376.215 288.318 387.429 285.207 397.501 282.613C414.045 278.42 430.549 274.072 447.011 269.569C447.001 273.567 447.095 275.608 447.58 279.567L448.114 279.776C446.714 280.066 447.264 279.994 445.727 279.539C444.503 280.819 439.918 282.37 438.064 282.907C424.117 286.948 412.219 292.457 410.011 308.482C408.358 320.632 410.933 336.078 419.695 345.194C420.968 345.985 420.737 345.489 421.046 346.521C419.49 350.827 417.851 355.102 416.13 359.345C411.281 356.995 404.234 352.466 399.339 349.723C387.384 343.026 375.485 335.943 363.348 329.575C363.785 317.283 365.013 302.689 366.101 290.395Z"/><path fill="#020000" d="M366.101 290.395C376.215 288.318 387.429 285.207 397.501 282.613C414.045 278.42 430.549 274.072 447.011 269.569C447.001 273.567 447.095 275.608 447.58 279.567L448.114 279.776C446.714 280.066 447.264 279.994 445.727 279.539C445.497 277.162 445.318 274.573 444.876 272.245C421.103 278.816 392.147 286.613 368.002 291.969C366.859 302.829 365.678 317.566 365.4 328.393C379.337 336.131 402.683 348.45 415.34 356.957C416.755 352.551 417.736 349.428 419.695 345.194C420.968 345.985 420.737 345.489 421.046 346.521C419.49 350.827 417.851 355.102 416.13 359.345C411.281 356.995 404.234 352.466 399.339 349.723C387.384 343.026 375.485 335.943 363.348 329.575C363.785 317.283 365.013 302.689 366.101 290.395Z"/><path fill="#020000" d="M530.941 212.46C533.582 213.254 536.133 214.188 537.675 216.545C542.899 224.533 543.265 236.889 548.204 244.899L548.373 246.536C537.373 251.86 529.855 255.416 525.479 268.096C521.137 280.678 523.6 297.711 529.497 309.407C532.705 315.921 537.454 321.553 543.333 325.814L542.334 326.466C537.909 324.505 534.134 320.445 531.52 316.407C522.648 302.701 518.594 284.61 523.13 268.683C525.151 261.588 529.04 257.183 534.11 252.081C514.717 258.353 495.775 265.607 476.251 271.709L476.825 270.846L476.15 269.973C474.044 270.57 473.245 271.592 472.58 269.525C471.38 265.796 470.421 261.571 469.034 257.945L468.348 256.182C467.444 260.21 471.883 268.328 471.209 271.143L470.909 271.228C468.846 263.75 457.87 238.455 466.203 234.051C499.102 216.662 495.875 235.849 504.851 259.83L514.602 256.652C512.036 248.346 508.956 240.11 506.611 231.813C503.714 221.565 510.534 218.438 518.855 215.888C523.063 214.599 526.52 213.209 530.941 212.46Z"/><path fill="#F4642C" d="M468.348 256.182C468.323 255.987 468.306 255.791 468.273 255.597C467.402 250.398 462.062 242.476 465.224 237.371C467.246 234.107 480.739 230.031 484.807 229.228C487.013 228.792 489.43 229.11 491.289 230.434C495.972 233.77 500.709 254.148 502.865 260.73C497.287 262.803 480.014 267.636 476.15 269.973C474.044 270.57 473.245 271.592 472.58 269.525C471.38 265.796 470.421 261.571 469.034 257.945L468.348 256.182Z"/><path fill="#F4642C" d="M529.989 214.635C532.595 214.984 535.936 216.253 536.975 218.769C540.522 227.353 543.18 237.066 546.225 245.815C538.865 248.496 531.454 251.033 523.994 253.424L522.876 253.797C520.615 254.63 518.442 255.383 516.177 256.177C513.315 248.544 510.853 237.481 508.104 229.493C507.415 227.492 507.459 225.089 508.71 223.206C511.247 219.39 525.607 215.461 529.989 214.635Z"/><path fill="#111010" d="M468.348 256.182L469.034 257.945C470.421 261.571 471.38 265.796 472.58 269.525C473.245 271.592 474.044 270.57 476.15 269.973L476.825 270.846L476.251 271.709C469.519 274.322 462.556 276.322 455.824 278.826C445.286 282.747 431.641 285.686 422.25 291.757C409.023 300.309 409.666 321.006 414.969 334.146C418.146 342.046 424.323 348.366 432.148 351.724C443.647 356.562 465.04 347.137 477.259 344.927C481.273 344.2 498.99 340.088 501.095 338.728C502.295 342.231 503.407 345.089 504.86 348.509C488.403 353.95 460.954 367.706 444.506 361.932C443.193 361.471 422.385 347.711 421.046 346.521C420.737 345.489 420.968 345.985 419.695 345.194C410.933 336.078 408.358 320.632 410.011 308.482C412.219 292.457 424.117 286.948 438.064 282.907C439.918 282.37 444.503 280.819 445.727 279.539C447.264 279.994 446.714 280.066 448.114 279.776L447.58 279.567C452.925 277.397 467.155 273.361 470.909 271.228L471.209 271.143C471.883 268.328 467.444 260.21 468.348 256.182Z"/><path fill="#111010" d="M498.503 279.555L498.995 279.72C500.408 281.921 505.306 305.301 506.351 309.948C483.335 318.024 460.251 325.904 437.101 333.588L436.255 333.157C433.847 326.011 431.154 310.981 429.542 303.043C435.745 301.406 441.445 299.033 447.514 297.121C464.589 291.743 481.439 284.852 498.503 279.555Z"/><path fill="#111010" d="M548.204 244.899C557.744 240.62 586.743 230.4 596.613 227.972C600.543 227.005 644.323 232.281 650.874 234.75C664.191 239.77 673.164 252.534 678.888 265.631C685.967 281.829 688.437 302.291 682.751 319.452C681.736 322.515 677.872 327.324 674.809 328.236C663.865 331.493 651.655 333.723 640.484 336.346C630.849 338.609 621.698 340.917 612.124 343.239C610.158 343.716 607.232 343.873 605.295 343.789C600.689 343.587 594.663 341.843 590.311 340.528C566.482 333.332 566.772 332.529 544.123 340.755C542.042 340.266 542.033 340.207 541.598 338.016C541.004 335.025 539.692 331.529 538.579 328.648C540.065 327.944 540.968 327.341 542.334 326.466L543.333 325.814C537.454 321.553 532.705 315.921 529.497 309.407C523.6 297.711 521.137 280.678 525.479 268.096C529.855 255.416 537.373 251.86 548.373 246.536L548.204 244.899Z"/><path fill="#8A8989" d="M548.373 246.536C557.307 242.955 566.46 239.854 575.535 236.65C582.351 234.244 589.658 231.157 596.781 229.941C600.926 229.234 635.863 233.343 642.425 234.486C645.597 235.008 648.7 235.886 651.674 237.104C677.828 248.068 690.664 294.981 680.325 320.306C675.125 333.042 659.321 324.741 649.883 321.908C649.242 321.716 648.603 321.043 648.169 320.531L648.455 319.666C651.571 318.711 657.12 321.347 660.335 321.668C667.11 322.343 675.046 318.829 677.91 312.203C688.029 288.795 676.659 252.964 654.22 240.43C647.514 237.392 638.971 236.718 631.502 236.235C623.154 235.694 610.342 231.746 602.421 232.378C588.977 233.452 570.869 242.752 557.596 246.454C550.447 248.448 544.493 251.682 541.695 258.465C530.779 285.913 547.094 328.038 579.884 328.99L581.239 330.048C563.701 329.968 562.074 334.022 543.333 325.814C537.454 321.553 532.705 315.921 529.497 309.407C523.6 297.711 521.137 280.678 525.479 268.096C529.855 255.416 537.373 251.86 548.373 246.536Z"/><path fill="#3A3A3B" d="M579.884 328.99C580.558 329.001 583.372 328.863 583.667 329.679C583.412 330.086 581.638 330.027 581.239 330.048L579.884 328.99Z"/><path fill="white" d="M596.648 238.524L597.939 239.055C599.467 240.966 599.637 245.401 599.959 248.011C602.582 270.246 607.081 298.338 592.641 317.574C582.877 330.582 567.576 326.643 556.86 317.592C550.764 311.768 545.729 302.836 543.135 294.63C540.009 283.957 538.913 270.005 543.558 259.666C545.682 254.938 551.998 253.135 556.502 251.731C569.931 247.545 583.181 242.576 596.648 238.524Z"/><path fill="#111010" d="M572.526 253.589C573.832 253.503 575.991 253.291 577.25 253.492C589.218 255.404 594.339 272.725 593.115 282.752C592.782 285.717 591.97 288.608 590.711 291.312C588.627 295.841 586.076 297.874 581.567 299.569C574.798 299.981 570.717 297.93 566.629 292.402C561.964 286.018 559.912 278.094 560.892 270.248C561.923 262.48 565.205 256.772 572.526 253.589Z"/><path fill="white" d="M604.127 237.931C616 238.734 629.083 240.723 640.99 242.021C670.103 245.195 684.048 292.238 672.46 315.563C666.555 322.328 656.745 320.32 649.685 316.654C621.811 302.179 613.409 265.39 604.127 237.931Z"/><path fill="#111010" d="M632.173 248.036C655.988 247.552 660.486 286.594 640.891 293.992C616.661 294.328 612.816 254.647 632.173 248.036Z"/><path fill="#111010" d="M817.399 741.17C833.757 740.781 851.431 740.861 867.82 740.991C867.857 743.155 868.049 749.52 867.811 751.401L817.166 751.588C817.177 748.126 817.161 744.622 817.399 741.17Z"/><path fill="#111010" d="M895.979 740.949L907.861 740.833C907.854 744.58 907.889 748.385 907.785 752.124C903.991 752.186 899.863 752.053 895.987 752.072C895.964 748.365 895.961 744.657 895.979 740.949Z"/></svg>